<svg width="26" height="19" viewBox="0 0 26 19" fill="none" xmlns="http://www.w3.org/2000/svg">
<path d="M0.00936984 2.58129L12.447 9.63708C12.9793 9.93906 13.6284 9.93274 14.1549 9.62045L25.9921 2.60008C25.8844 1.14582 24.6925 0 23.2379 0H2.76206C1.31378 0 0.125846 1.13596 0.00936984 2.58129Z" fill="#fff"/>
<path d="M17.3321 10.1787L15.1969 11.4451C14.0385 12.1321 12.6105 12.146 11.4394 11.4817L9.14315 10.179L0.000139937 16.2138C0.0152166 17.7552 1.24599 19 2.76206 19H23.2379C24.719 19 25.9278 17.812 25.9969 16.3201L17.3321 10.1787Z" fill="#fff"/>
<path d="M19.3074 9.00725L26 13.7508V5.03797L19.3074 9.00725Z" fill="#fff"/>
<path d="M0 4.99213L7.09382 9.01642L0 13.6987V4.99213Z" fill="#fff"/>
</svg>
