<svg width="28" height="26" viewBox="0 0 28 26" fill="none" xmlns="http://www.w3.org/2000/svg">
<path d="M9.65046 20.9566C9.65046 21.0621 9.52861 21.1465 9.37498 21.1465C9.20015 21.1623 9.0783 21.0779 9.0783 20.9566C9.0783 20.8512 9.20015 20.7668 9.35378 20.7668C9.51272 20.751 9.65046 20.8354 9.65046 20.9566ZM8.00283 20.7193C7.96575 20.8248 8.0717 20.9461 8.23064 20.9777C8.36838 21.0305 8.52732 20.9777 8.55911 20.8723C8.59089 20.7668 8.49023 20.6455 8.3313 20.598C8.19355 20.5611 8.03992 20.6139 8.00283 20.7193ZM10.3445 20.6297C10.1908 20.6666 10.0849 20.7668 10.1008 20.8881C10.1167 20.9936 10.2544 21.0621 10.4134 21.0252C10.567 20.9883 10.6729 20.8881 10.6571 20.7826C10.6412 20.6824 10.4981 20.6139 10.3445 20.6297ZM13.8305 0.421875C6.48235 0.421875 0.861328 5.97481 0.861328 13.2891C0.861328 19.1373 4.55923 24.1418 9.84119 25.9031C10.5193 26.0244 10.7577 25.6078 10.7577 25.265C10.7577 24.9381 10.7418 23.1346 10.7418 22.0272C10.7418 22.0272 7.03333 22.8182 6.25454 20.4557C6.25454 20.4557 5.65059 18.9211 4.78174 18.5256C4.78174 18.5256 3.56853 17.6977 4.8665 17.7135C4.8665 17.7135 6.18567 17.8189 6.91147 19.074C8.0717 21.1096 10.016 20.5242 10.7736 20.1762C10.8955 19.3324 11.2398 18.7471 11.6213 18.399C8.65977 18.0721 5.67178 17.6449 5.67178 12.5719C5.67178 11.1217 6.07441 10.3939 6.92207 9.46582C6.78433 9.12305 6.33401 7.70977 7.05981 5.88516C8.16707 5.54238 10.7153 7.30899 10.7153 7.30899C11.7749 7.01367 12.9139 6.86074 14.0424 6.86074C15.1708 6.86074 16.3099 7.01367 17.3694 7.30899C17.3694 7.30899 19.9177 5.53711 21.025 5.88516C21.7508 7.71504 21.3004 9.12305 21.1627 9.46582C22.0104 10.3992 22.5295 11.127 22.5295 12.5719C22.5295 17.6607 19.4091 18.0668 16.4476 18.399C16.935 18.8156 17.3482 19.6066 17.3482 20.8459C17.3482 22.623 17.3323 24.8221 17.3323 25.2545C17.3323 25.5973 17.5761 26.0139 18.2489 25.8926C23.5467 24.1418 27.1387 19.1373 27.1387 13.2891C27.1387 5.97481 21.1786 0.421875 13.8305 0.421875ZM6.01084 18.61C5.94197 18.6627 5.95786 18.784 6.04792 18.8842C6.13269 18.9686 6.25454 19.0055 6.32341 18.9369C6.39228 18.8842 6.37639 18.7629 6.28633 18.6627C6.20156 18.5783 6.07971 18.5414 6.01084 18.61ZM5.43867 18.1828C5.40159 18.2514 5.45457 18.3357 5.56052 18.3885C5.64529 18.4412 5.75125 18.4254 5.78833 18.3516C5.82542 18.283 5.77244 18.1986 5.66648 18.1459C5.56052 18.1143 5.47576 18.1301 5.43867 18.1828ZM7.15518 20.0602C7.07041 20.1287 7.1022 20.2869 7.22405 20.3871C7.3459 20.5084 7.49954 20.5242 7.56841 20.4398C7.63728 20.3713 7.60549 20.2131 7.49954 20.1129C7.38298 19.9916 7.22405 19.9758 7.15518 20.0602ZM6.55122 19.285C6.46646 19.3377 6.46646 19.4748 6.55122 19.5961C6.63599 19.7174 6.77903 19.7701 6.8479 19.7174C6.93267 19.6488 6.93267 19.5117 6.8479 19.3904C6.77373 19.2691 6.63599 19.2164 6.55122 19.285Z" fill="#fff"/>
</svg>
