<svg width="26" height="23" viewBox="0 0 26 23" fill="none" xmlns="http://www.w3.org/2000/svg">
<path fill-rule="evenodd" clip-rule="evenodd" d="M1.64038 0C0.734422 0 0 0.734422 0 1.64038V20.3407C0 21.2466 0.734422 21.9811 1.64038 21.9811H20.3407C21.2466 21.9811 21.9811 21.2466 21.9811 20.3407V1.64038C21.9811 0.734422 21.2466 0 20.3407 0H1.64038ZM4.90063 6.80757C5.93116 6.80757 6.76656 5.97217 6.76656 4.94164C6.76656 3.91112 5.93116 3.07571 4.90063 3.07571C3.87011 3.07571 3.0347 3.91112 3.0347 4.94164C3.0347 5.97217 3.87011 6.80757 4.90063 6.80757ZM3.28076 8.2429H6.56151V18.7003H3.28076V8.2429ZM14.8454 7.99685C13.1301 7.99685 12.1255 8.98444 11.7287 9.64687V8.2429H8.57098V18.7003H11.8517V12.6227C12.0158 11.4211 12.8131 10.8265 13.6767 10.8265C14.7019 10.8265 15.4606 11.2981 15.4606 12.836V18.7003H18.7413V12.6309C18.7413 9.1041 17.265 7.99685 14.8454 7.99685Z" fill="#564647"/>
<path fill-rule="evenodd" clip-rule="evenodd" d="M24.1956 21.4069V20.7508H24.4621L24.8927 21.4069H25.1388C25.1102 21.3657 25.0745 21.3075 25.027 21.2301C24.9541 21.1113 24.8534 20.9472 24.7082 20.7303C24.8312 20.7098 24.9543 20.6278 25.0158 20.5662C25.0773 20.5047 25.1183 20.3817 25.1183 20.2587C25.1183 20.1356 25.0581 20.009 24.9543 19.9306C24.8504 19.8514 24.6991 19.8076 24.4826 19.8076H23.9495V21.4069H24.1956ZM24.4006 20.5457H24.1956V20.0126H24.298C24.4069 20.0126 24.6262 20.0126 24.7287 20.0331C24.8312 20.0536 24.8927 20.1151 24.8927 20.2587C24.8927 20.4022 24.8312 20.4637 24.7287 20.5047C24.6262 20.5457 24.5074 20.5457 24.4006 20.5457Z" fill="#564647"/>
<path fill-rule="evenodd" clip-rule="evenodd" d="M24.5032 22.1041C25.3298 22.1041 26 21.4339 26 20.6073C26 19.7806 25.3298 19.1104 24.5032 19.1104C23.6765 19.1104 23.0063 19.7806 23.0063 20.6073C23.0063 21.4339 23.6765 22.1041 24.5032 22.1041ZM24.5032 21.9401C25.2392 21.9401 25.836 21.3433 25.836 20.6073C25.836 19.8712 25.2392 19.2744 24.5032 19.2744C23.7671 19.2744 23.1703 19.8712 23.1703 20.6073C23.1703 21.3433 23.7671 21.9401 24.5032 21.9401Z" fill="#564647"/>
</svg>
