<?xml version="1.0" encoding="UTF-8" standalone="no"?>
<svg
   xmlns:dc="http://purl.org/dc/elements/1.1/"
   xmlns:cc="http://creativecommons.org/ns#"
   xmlns:rdf="http://www.w3.org/1999/02/22-rdf-syntax-ns#"
   xmlns:svg="http://www.w3.org/2000/svg"
   xmlns="http://www.w3.org/2000/svg"
   viewBox="0 0 732.5 698.75"
   height="698.75"
   width="732.5"
   xml:space="preserve"
   version="1.1"
   id="svg2"><metadata
     id="metadata8"><rdf:RDF><cc:Work
         rdf:about=""><dc:format>image/svg+xml</dc:format><dc:type
           rdf:resource="http://purl.org/dc/dcmitype/StillImage" /><dc:title></dc:title></cc:Work></rdf:RDF></metadata><defs
     id="defs6" /><g
     transform="matrix(1.25,0,0,-1.25,0,698.75)"
     id="g10"><g
       transform="matrix(0.17156783,0,0,0.17156783,-209.69378,-200.03191)"
       id="g12"><path
         id="path14"
         style="fill:#f25923;fill-opacity:1;fill-rule:nonzero;stroke:none"
         d="m 4611.72,2571.75 -189.16,581.17 -374.2,1152.77 c -19.19,58.94 -102.81,58.94 -122.68,0 l -374.21,-1152.08 -1243.23,0 -374.2,1152.08 c -19.19,58.94 -102.8,58.94 -122.68,0 L 1437.84,3153.61 1248.68,2571.75 c -17.13,-52.78 1.37,-111.03 46.61,-143.93 L 2929.86,1240.1 4564.43,2427.82 c 45.23,32.9 64.42,91.15 47.29,143.93" /><path
         id="path16"
         style="fill:#e33426;fill-opacity:1;fill-rule:nonzero;stroke:none"
         d="m 2930.31,1240.89 0,0 621.62,1912.82 -1243.24,0 621.62,-1912.82 0,0" /><path
         id="path18"
         style="fill:#f25923;fill-opacity:1;fill-rule:nonzero;stroke:none"
         d="m 2929.85,1240.88 -621.62,1912.83 -870.4,0 1492.02,-1912.83 0,0" /><path
         id="path20"
         style="fill:#f79818;fill-opacity:1;fill-rule:nonzero;stroke:none"
         d="m 1437.54,3153.06 0,0 -189.15,-581.19 c -17.14,-52.77 1.37,-111.02 46.6,-143.92 l 1634.57,-1187.72 -1492.02,1912.83 0,0" /><path
         id="path22"
         style="fill:#e33426;fill-opacity:1;fill-rule:nonzero;stroke:none"
         d="m 1437.77,3153.06 871.09,0 -374.89,1152.08 c -19.19,58.94 -102.81,58.94 -122.68,0 l -373.52,-1152.08 0,0" /><path
         id="path24"
         style="fill:#f25923;fill-opacity:1;fill-rule:nonzero;stroke:none"
         d="m 2930.31,1240.88 621.62,1912.83 871.08,0 -1492.7,-1912.83 0,0" /><path
         id="path26"
         style="fill:#f79818;fill-opacity:1;fill-rule:nonzero;stroke:none"
         d="m 4422.39,3153.06 0,0 189.16,-581.19 c 17.13,-52.77 -1.37,-111.02 -46.6,-143.92 l -1634.58,-1187.03 1492.02,1912.14 0,0" /><path
         id="path28"
         style="fill:#e33426;fill-opacity:1;fill-rule:nonzero;stroke:none"
         d="m 4422.85,3153.06 -871.09,0 374.21,1152.08 c 19.19,58.94 102.8,58.94 122.67,0 l 374.21,-1152.08 0,0" /></g></g></svg>