<?xml version="1.0" encoding="UTF-8" standalone="no"?>
<svg
   xmlns:dc="http://purl.org/dc/elements/1.1/"
   xmlns:cc="http://creativecommons.org/ns#"
   xmlns:rdf="http://www.w3.org/1999/02/22-rdf-syntax-ns#"
   xmlns:svg="http://www.w3.org/2000/svg"
   xmlns="http://www.w3.org/2000/svg"
   xmlns:sodipodi="http://sodipodi.sourceforge.net/DTD/sodipodi-0.dtd"
   xmlns:inkscape="http://www.inkscape.org/namespaces/inkscape"
   viewBox="0 0 100 100"
   id="svg2"
   version="1.1"
   inkscape:version="0.91 r13725"
   sodipodi:docname="html5.svg"
   width="100"
   height="100">
  <metadata
     id="metadata30">
    <rdf:RDF>
      <cc:Work
         rdf:about="">
        <dc:format>image/svg+xml</dc:format>
        <dc:type
           rdf:resource="http://purl.org/dc/dcmitype/StillImage" />
        <dc:title>HTML5 Logo</dc:title>
      </cc:Work>
    </rdf:RDF>
  </metadata>
  <defs
     id="defs28" />
  <sodipodi:namedview
     pagecolor="#ffffff"
     bordercolor="#666666"
     borderopacity="1"
     objecttolerance="10"
     gridtolerance="10"
     guidetolerance="10"
     inkscape:pageopacity="0"
     inkscape:pageshadow="2"
     inkscape:window-width="640"
     inkscape:window-height="480"
     id="namedview26"
     showgrid="false"
     inkscape:zoom="0.89160156"
     inkscape:cx="157.62566"
     inkscape:cy="269.28013"
     inkscape:current-layer="svg2" />
  <title
     id="title4">HTML5 Logo</title>
  <g
     id="g3358"
     transform="matrix(0.1953125,0,0,0.1953125,0,80.46875)">
    <polygon
       transform="translate(0,-412)"
       style="fill:#e44d26"
       id="polygon6"
       points="404.321,470.819 255.778,512 107.644,470.877 74.633,100.62 437.367,100.62 " />
    <polygon
       transform="translate(0,-412)"
       style="fill:#f16529"
       id="polygon8"
       points="256,480.523 376.03,447.246 404.27,130.894 256,130.894 " />
    <polygon
       transform="translate(0,-412)"
       style="fill:#ebebeb"
       id="polygon10"
       points="154.38,313.627 256,313.627 256,268.217 195.91,268.217 191.76,221.716 256,221.716 256,176.305 255.843,176.305 142.132,176.305 143.219,188.488 " />
    <polygon
       transform="translate(0,-412)"
       style="fill:#ebebeb"
       id="polygon12"
       points="256,433.399 256,386.153 255.801,386.206 205.227,372.55 201.994,336.333 177.419,336.333 156.409,336.333 162.771,407.634 255.791,433.457 " />
    <path
       inkscape:connector-curvature="0"
       id="path14"
       d="m 108.382,-412 23.077,0 0,22.8 21.11,0 0,-22.8 23.078,0 0,69.044 -23.077,0 0,-23.12 -21.11,0 0,23.12 -23.077,0 0,-69.044 z" />
    <path
       inkscape:connector-curvature="0"
       id="path16"
       d="m 205.994,-389.104 -20.316,0 0,-22.896 63.72,0 0,22.896 -20.325,0 0,46.148 -23.078,0 0,-46.148 z" />
    <path
       inkscape:connector-curvature="0"
       id="path18"
       d="m 259.511,-412 24.063,0 14.802,24.26 14.787,-24.26 24.072,0 0,69.044 -22.982,0 0,-34.222 -15.877,24.549 -0.397,0 -15.888,-24.549 0,34.222 -22.58,0 0,-69.044 z" />
    <path
       inkscape:connector-curvature="0"
       id="path20"
       d="m 348.72,-412 23.084,0 0,46.222 32.453,0 0,22.822 -55.537,0 0,-69.044 z" />
    <polygon
       transform="translate(0,-412)"
       style="fill:#ffffff"
       id="polygon22"
       points="360.291,280.411 361.399,268.217 349.162,268.217 255.843,268.217 255.843,313.627 311.761,313.627 306.49,372.521 255.843,386.191 255.843,433.435 348.937,407.634 349.62,399.962 " />
    <polygon
       transform="translate(0,-412)"
       style="fill:#ffffff"
       id="polygon24"
       points="368.511,188.488 369.597,176.305 255.843,176.305 255.843,204.509 255.843,221.605 255.843,221.716 365.385,221.716 365.385,221.716 365.531,221.716 366.442,211.509 " />
  </g>
</svg>
