<?xml version="1.0" encoding="UTF-8" standalone="no"?>
<svg
   xmlns:dc="http://purl.org/dc/elements/1.1/"
   xmlns:cc="http://creativecommons.org/ns#"
   xmlns:rdf="http://www.w3.org/1999/02/22-rdf-syntax-ns#"
   xmlns:svg="http://www.w3.org/2000/svg"
   xmlns="http://www.w3.org/2000/svg"
   xmlns:xlink="http://www.w3.org/1999/xlink"
   height="21.011566"
   width="100"
   version="1.1"
   id="svg2"
   viewBox="0 0 99.999999 21.011566">
  <metadata
     id="metadata24">
    <rdf:RDF>
      <cc:Work
         rdf:about="">
        <dc:format>image/svg+xml</dc:format>
        <dc:type
           rdf:resource="http://purl.org/dc/dcmitype/StillImage" />
        <dc:title></dc:title>
      </cc:Work>
    </rdf:RDF>
  </metadata>
  <defs
     id="defs22" />
  <g
     id="g4"
     transform="matrix(0.86880936,0,0,0.86880936,-10.032653,-9.6674944)">
    <path
       style="fill:none;stroke:#009900;stroke-width:5;stroke-linecap:round;stroke-linejoin:round"
       d="m 14.047838,32.727592 0,-19.064695 19.062499,19.064695 0,-19.064695"
       id="a" />
    <path
       style="fill:#009900"
       id="path7"
       d="M 44.6875,11.1875 44,12.46875 38.6875,22.125 38,23.34375 38.6875,24.5625 44,33.90625 l 0.71875,1.28125 1.46875,0 10.875,0 1.5625,0 0.6875,-1.40625 3.96875,-8 1.78125,-3.625 -4.03125,0 L 50.875,22.1875 c -1.320782,-0.01868 -2.535605,1.179086 -2.535605,2.5 0,1.320914 1.214823,2.518679 2.535605,2.5 L 57,27.15625 l -1.5,3.03125 -7.875,0 -3.90625,-6.875 3.9375,-7.125 8.377221,0 1.953125,4.007812 5.03125,0 -3.171875,-7.601562 -0.6875,-1.40625 -1.5625,0 -11.408471,0 z" />
    <path
       style="fill:#009900"
       id="path9"
       d="m 70.013782,11.15625 c -1.308989,0.01639 -2.485084,1.222261 -2.46875,2.53125 l 0,6.514509 5,0 0,-6.514509 c 0.01659,-1.329821 -1.201429,-2.547843 -2.53125,-2.53125 z" />
    <use
       y="0"
       x="0"
       id="use11"
       xlink:href="#a"
       width="744.09448"
       transform="matrix(-1,0,0,1,111.13905,0.04841623)"
       height="1052.3622" />
    <g
       id="g13"
       transform="translate(0.10586251,0.33010228)">
      <path
         style="fill:none;stroke:#009900;stroke-width:5;stroke-linecap:round;stroke-linejoin:round"
         d="m 104.90935,13.374209 19.08481,19.017856"
         id="b" />
      <use
         y="0"
         x="0"
         id="use16"
         xlink:href="#b"
         width="744.09448"
         transform="matrix(-1,0,0,1,228.92583,0)"
         height="1052.3622" />
    </g>
    <path
       style="fill:#009900"
       id="path18"
       d="m 70.013782,35.204069 c -1.308989,-0.01639 -2.485084,-1.222261 -2.46875,-2.53125 l 0,-10.464363 5,0 0,10.464363 c 0.01659,1.329821 -1.201429,2.547843 -2.53125,2.53125 z" />
  </g>
</svg>
