<?xml version="1.0" encoding="UTF-8" standalone="no"?>
<svg
   xmlns:dc="http://purl.org/dc/elements/1.1/"
   xmlns:cc="http://creativecommons.org/ns#"
   xmlns:rdf="http://www.w3.org/1999/02/22-rdf-syntax-ns#"
   xmlns:svg="http://www.w3.org/2000/svg"
   xmlns="http://www.w3.org/2000/svg"
   xmlns:xlink="http://www.w3.org/1999/xlink"
   xmlns:sodipodi="http://sodipodi.sourceforge.net/DTD/sodipodi-0.dtd"
   xmlns:inkscape="http://www.inkscape.org/namespaces/inkscape"
   viewBox="0 0 99.999999 100"
   id="svg2"
   version="1.1"
   inkscape:version="0.91 r13725"
   sodipodi:docname="nginx.svg"
   width="100"
   height="100">
  <metadata
     id="metadata24">
    <rdf:RDF>
      <cc:Work
         rdf:about="">
        <dc:format>image/svg+xml</dc:format>
        <dc:type
           rdf:resource="http://purl.org/dc/dcmitype/StillImage" />
        <dc:title></dc:title>
      </cc:Work>
    </rdf:RDF>
  </metadata>
  <defs
     id="defs22" />
  <sodipodi:namedview
     pagecolor="#ffffff"
     bordercolor="#666666"
     borderopacity="1"
     objecttolerance="10"
     gridtolerance="10"
     guidetolerance="10"
     inkscape:pageopacity="0"
     inkscape:pageshadow="2"
     inkscape:window-width="640"
     inkscape:window-height="480"
     id="namedview20"
     showgrid="false"
     inkscape:zoom="9.17"
     inkscape:cx="50"
     inkscape:cy="50"
     inkscape:current-layer="svg2" />
  <g
     transform="matrix(0.86880936,0,0,0.86880936,-10.032653,29.826722)"
     id="g4">
    <path
       id="a"
       d="m 14.047838,32.727592 0,-19.064695 19.062499,19.064695 0,-19.064695"
       inkscape:connector-curvature="0"
       style="fill:none;stroke:#009900;stroke-width:5;stroke-linecap:round;stroke-linejoin:round" />
    <path
       d="M 44.6875,11.1875 44,12.46875 38.6875,22.125 38,23.34375 38.6875,24.5625 44,33.90625 l 0.71875,1.28125 1.46875,0 10.875,0 1.5625,0 0.6875,-1.40625 3.96875,-8 1.78125,-3.625 -4.03125,0 L 50.875,22.1875 c -1.320782,-0.01868 -2.535605,1.179086 -2.535605,2.5 0,1.320914 1.214823,2.518679 2.535605,2.5 L 57,27.15625 l -1.5,3.03125 -7.875,0 -3.90625,-6.875 3.9375,-7.125 8.377221,0 1.953125,4.007812 5.03125,0 -3.171875,-7.601562 -0.6875,-1.40625 -1.5625,0 -11.408471,0 z"
       id="path7"
       inkscape:connector-curvature="0"
       style="fill:#009900" />
    <path
       d="m 70.013782,11.15625 c -1.308989,0.01639 -2.485084,1.222261 -2.46875,2.53125 l 0,6.514509 5,0 0,-6.514509 c 0.01659,-1.329821 -1.201429,-2.547843 -2.53125,-2.53125 z"
       id="path9"
       inkscape:connector-curvature="0"
       style="fill:#009900" />
    <use
       height="1052.3622"
       transform="matrix(-1,0,0,1,111.13905,0.04841623)"
       width="744.09448"
       xlink:href="#a"
       id="use11"
       x="0"
       y="0" />
    <g
       transform="translate(0.10586251,0.33010228)"
       id="g13">
      <path
         id="b"
         d="m 104.90935,13.374209 19.08481,19.017856"
         inkscape:connector-curvature="0"
         style="fill:none;stroke:#009900;stroke-width:5;stroke-linecap:round;stroke-linejoin:round" />
      <use
         height="1052.3622"
         transform="matrix(-1,0,0,1,228.92583,0)"
         width="744.09448"
         xlink:href="#b"
         id="use16"
         x="0"
         y="0" />
    </g>
    <path
       d="m 70.013782,35.204069 c -1.308989,-0.01639 -2.485084,-1.222261 -2.46875,-2.53125 l 0,-10.464363 5,0 0,10.464363 c 0.01659,1.329821 -1.201429,2.547843 -2.53125,2.53125 z"
       id="path18"
       inkscape:connector-curvature="0"
       style="fill:#009900" />
  </g>
</svg>
