<?xml version="1.0" standalone="no"?>
<!DOCTYPE svg PUBLIC "-//W3C//DTD SVG 20010904//EN"
 "http://www.w3.org/TR/2001/REC-SVG-20010904/DTD/svg10.dtd">
<svg version="1.0" xmlns="http://www.w3.org/2000/svg"
 width="700.000000pt" height="700.000000pt" viewBox="0 0 700.000000 700.000000"
 preserveAspectRatio="xMidYMid meet">
<metadata>
Created by potrace 1.11, written by Peter Selinger 2001-2013
</metadata>
<g transform="translate(0.000000,700.000000) scale(0.100000,-0.100000)"
fill="#000000" stroke="none">
<path d="M1135 6989 c-504 -74 -915 -418 -1070 -896 -14 -44 -28 -91 -30 -104
-12 -59 -17 -88 -25 -139 -11 -67 -8 -4705 3 -4740 4 -14 10 -40 13 -58 3 -18
16 -68 28 -110 130 -432 461 -761 892 -888 188 -55 50 -52 2579 -50 1287 1
2354 5 2370 9 17 5 50 13 75 18 120 26 288 93 385 154 22 14 47 28 55 32 8 3
17 9 20 12 3 4 30 25 60 47 71 52 182 163 234 234 22 30 43 57 46 60 14 13 73
117 104 183 56 119 88 225 113 377 5 25 8 1100 8 2390 l0 2345 -22 94 c-125
525 -493 891 -1023 1017 -71 17 -205 18 -2415 20 -1295 1 -2367 -2 -2400 -7z
m1025 -2566 c0 -1502 -1 -2238 -4 -2268 -2 -16 -6 -55 -10 -85 -12 -112 -61
-268 -113 -359 -122 -213 -334 -349 -603 -387 -150 -21 -440 -4 -522 30 l-33
14 0 204 c0 112 4 205 8 206 6 3 42 -1 117 -15 238 -43 416 -7 518 107 48 54
92 171 106 285 3 22 5 727 6 1568 l0 1527 265 0 265 0 0 -827z m1547 722 c37
-58 91 -141 118 -183 28 -43 91 -140 141 -217 50 -77 122 -187 159 -245 37
-58 91 -141 120 -185 29 -44 77 -118 107 -165 30 -47 89 -137 130 -200 88
-135 127 -196 375 -578 331 -511 365 -562 374 -556 5 3 7 9 5 12 -2 4 -7 75
-11 157 -3 83 -8 188 -12 235 -3 47 -6 523 -7 1058 l-2 972 242 0 242 0 -1
-1537 -2 -1538 -322 -3 -322 -3 -27 43 c-15 24 -55 86 -89 138 -33 52 -86 133
-116 180 -30 46 -91 141 -136 210 -174 267 -244 376 -648 1000 -230 355 -454
700 -497 767 -44 68 -84 121 -89 118 -4 -3 -6 -11 -4 -18 2 -7 6 -50 9 -97 10
-140 17 -241 22 -315 3 -38 7 -510 8 -1047 l4 -978 -239 0 -239 0 -1 23 c-1
29 -1 3017 0 3040 1 16 23 17 320 17 l319 0 69 -105z"/>
</g>
</svg>
